ffmpeg version 3.4.8-0ubuntu0.2 Copyright (c) 2000-2020 the FFmpeg developers
  built with gcc 7 (Ubuntu 7.5.0-3ubuntu1~18.04)
  configuration: --prefix=/usr --extra-version=0ubuntu0.2 --toolchain=hardened --libdir=/usr/lib/x86_64-linux-gnu --incdir=/usr/include/x86_64-linux-gnu --enable-gpl --disable-stripping --enable-avresample --enable-avisynth --enable-gnutls --enable-ladspa --enable-libass --enable-libbluray --enable-libbs2b --enable-libcaca --enable-libcdio --enable-libflite --enable-libfontconfig --enable-libfreetype --enable-libfribidi --enable-libgme --enable-libgsm --enable-libmp3lame --enable-libmysofa --enable-libopenjpeg --enable-libopenmpt --enable-libopus --enable-libpulse --enable-librubberband --enable-librsvg --enable-libshine --enable-libsnappy --enable-libsoxr --enable-libspeex --enable-libssh --enable-libtheora --enable-libtwolame --enable-libvorbis --enable-libvpx --enable-libwavpack --enable-libwebp --enable-libx265 --enable-libxml2 --enable-libxvid --enable-libzmq --enable-libzvbi --enable-omx --enable-openal --enable-opengl --enable-sdl2 --enable-libdc1394 --enable-libdrm --enable-libiec61883 --enable-chromaprint --enable-frei0r --enable-libopencv --enable-libx264 --enable-shared
  libavutil      55. 78.100 / 55. 78.100
  libavcodec     57.107.100 / 57.107.100
  libavformat    57. 83.100 / 57. 83.100
  libavdevice    57. 10.100 / 57. 10.100
  libavfilter     6.107.100 /  6.107.100
  libavresample   3.  7.  0 /  3.  7.  0
  libswscale      4.  8.100 /  4.  8.100
  libswresample   2.  9.100 /  2.  9.100
  libpostproc    54.  7.100 / 54.  7.100
[rawvideo @ 0x55f476b48a20] Estimating duration from bitrate, this may be inaccurate
Input #0, rawvideo, from '../../SVC-Encoder-20220109T061506Z-001/SVC-Encoder/Dataset/RollerCoaster/6f_2x2/tile_yuv/f2_t1_480x480.yuv':
  Duration: 00:00:10.00, start: 0.000000, bitrate: 82944 kb/s
    Stream #0:0: Video: rawvideo (I420 / 0x30323449), yuv420p, 480x480, 82944 kb/s, 30 tbr, 30 tbn, 30 tbc
Stream mapping:
  Stream #0:0 -> #0:0 (rawvideo (native) -> h264 (libx264))
Press [q] to stop, [?] for help
[libx264 @ 0x55f476b55c60] using cpu capabilities: MMX2 SSE2Fast LZCNT SSSE3 SSE4.2 AVX
[libx264 @ 0x55f476b55c60] profile High, level 3.0
Output #0, rawvideo, to 'RollerCoaster_f2_t1_480x480_x264_QP_24.h264':
  Metadata:
    encoder         : Lavf57.83.100
    Stream #0:0: Video: h264 (libx264), yuv420p, 480x480, q=-1--1, 30 fps, 30 tbn, 30 tbc
    Metadata:
      encoder         : Lavc57.107.100 libx264
    Side data:
      cpb: bitrate max/min/avg: 0/0/0 buffer size: 0 vbv_delay: -1
frame=  300 fps=0.0 q=30.0 LPSNR=Y:inf U:inf V:inf *:inf size=      19kB time=00:00:09.93 bitrate=  15.5kbits/s speed=  27x    
video:19kB audio:0kB subtitle:0kB other streams:0kB global headers:0kB muxing overhead: 0.000000%
[libx264 @ 0x55f476b55c60] frame I:2     Avg QP:22.50  size:  1334  PSNR Mean Y:54.52 U:58.65 V:57.65 Avg:55.42 Global:55.40
[libx264 @ 0x55f476b55c60] frame P:76    Avg QP:23.69  size:   153  PSNR Mean Y:53.91 U:57.61 V:56.82 Avg:54.75 Global:54.64
[libx264 @ 0x55f476b55c60] frame B:222   Avg QP:29.67  size:    22  PSNR Mean Y:53.95 U:57.58 V:56.82 Avg:54.78 Global:54.73
[libx264 @ 0x55f476b55c60] consecutive B-frames:  1.0%  0.7%  1.0% 97.3%
[libx264 @ 0x55f476b55c60] mb I  I16..4: 85.9% 14.1%  0.0%
[libx264 @ 0x55f476b55c60] mb P  I16..4:  2.7%  0.6%  0.1%  P16..4:  3.4%  0.3%  0.0%  0.0%  0.0%    skip:93.0%
[libx264 @ 0x55f476b55c60] mb B  I16..4:  0.0%  0.0%  0.0%  B16..8:  0.2%  0.0%  0.0%  direct: 0.0%  skip:99.7%  L0:36.6% L1:62.7% BI: 0.7%
[libx264 @ 0x55f476b55c60] 8x8 transform intra:15.8% inter:82.7%
[libx264 @ 0x55f476b55c60] coded y,uvDC,uvAC intra: 2.5% 7.3% 0.0% inter: 0.0% 0.1% 0.0%
[libx264 @ 0x55f476b55c60] i16 v,h,dc,p: 58% 16% 14% 13%
[libx264 @ 0x55f476b55c60] i8 v,h,dc,ddl,ddr,vr,hd,vl,hu: 16%  4% 71%  2%  2%  2%  1%  0%  1%
[libx264 @ 0x55f476b55c60] i4 v,h,dc,ddl,ddr,vr,hd,vl,hu: 26% 16% 28%  8%  4%  2%  1%  8%  6%
[libx264 @ 0x55f476b55c60] i8c dc,h,v,p: 84%  6%  9%  0%
[libx264 @ 0x55f476b55c60] Weighted P-Frames: Y:0.0% UV:0.0%
[libx264 @ 0x55f476b55c60] ref P L0: 86.8%  3.3%  7.9%  2.0%
[libx264 @ 0x55f476b55c60] ref B L0: 82.9% 15.1%  2.0%
[libx264 @ 0x55f476b55c60] ref B L1: 97.4%  2.6%
[libx264 @ 0x55f476b55c60] PSNR Mean Y:53.946 U:57.597 V:56.826 Avg:54.775 Global:54.710 kb/s:15.37
